# xmcd CD database file
#
# Track frame offsets:
#	182
#	33450
#	47195
#	95562
#	136270
#	162855
#	172247
#	200975
#	221460
#	227485
#	254042
#	262080
#	291375
#
# Disc length: 4150 seconds
#
# Revision: 0
# Processed by: cddbd v1.5.2PL0 Copyright (c) Steve Scherf et al.
# Submitted via: CDex 1.50
#
DISCID=d110340d
DTITLE=Eniotna - En concerts
DYEAR=1993
DGENRE=Jazz
TTITLE0=Anda
TTITLE1=Eniotna
TTITLE2=Djakarta
TTITLE3=Aigue Marine
TTITLE4=Comme un Lundi
TTITLE5=Soledad
TTITLE6=Au pied du Mur
TTITLE7=Oz
TTITLE8=Tapioka
TTITLE9=Collusion
TTITLE10=Mauvais Oeil
TTITLE11=Odela
TTITLE12=Sagittaire
EXTD=YEAR: 1993
EXTT0=
EXTT1=
EXTT2=
EXTT3=
EXTT4=
EXTT5=
EXTT6=
EXTT7=
EXTT8=
EXTT9=
EXTT10=
EXTT11=
EXTT12=
PLAYORDER=
